<?xml version="1.0" standalone="yes"?>

<svg version="1.1" viewBox="0.0 0.0 375.15748031496065 165.4724409448819" fill="none" stroke="none" stroke-linecap="square" stroke-miterlimit="10" xmlns="http://www.w3.org/2000/svg" xmlns:xlink="http://www.w3.org/1999/xlink"><clipPath id="p.0"><path d="m0 0l375.15747 0l0 165.47244l-375.15747 0l0 -165.47244z" clip-rule="nonzero"></path></clipPath><g clip-path="url(#p.0)"><path fill="#000000" fill-opacity="0.0" d="m0 0l375.15747 0l0 165.47244l-375.15747 0z" fill-rule="nonzero"></path><path fill="#000000" fill-opacity="0.0" d="m34.04155 65.95579l0 0c-1.0419197 -8.403591 2.37891 -16.722637 8.810902 -21.427063c6.4319954 -4.704422 14.74712 -4.969166 21.416965 -0.6818924l0 0c2.3626633 -4.8862 6.6870193 -8.259781 11.665047 -9.100304c4.9780273 -0.8405266 10.025024 0.9507332 13.61438 4.831951l0 0c2.0126877 -4.4301414 5.96463 -7.4066315 10.453476 -7.873255c4.488838 -0.4666233 8.879303 1.6426563 11.613426 5.579359l0 0c3.6362076 -4.695938 9.421509 -6.6731224 14.852562 -5.0760155c5.431061 1.5971069 9.53241 6.4816513 10.529373 12.540062l0 0c4.4549713 1.3336678 8.165878 4.724022 10.17392 9.295109c2.0080414 4.5710907 2.1162567 9.874493 0.29667664 14.539986l0 0c4.386841 6.266266 5.41304 14.61599 2.6956177 21.933197c-2.7174072 7.317215 -8.770172 12.502586 -15.899506 13.621033c-0.05026245 6.867462 -3.4819489 13.168968 -8.972351 16.475632c-5.490402 3.3066711 -12.182175 3.10215 -17.496017 -0.5347214c-2.26342 8.224983 -8.634171 14.276848 -16.35987 15.540962c-7.7257004 1.2641144 -15.421349 -2.4861298 -19.762154 -9.630501c-5.320915 3.5214767 -11.705574 4.5359116 -17.713722 2.8144455c-6.008148 -1.7214584 -11.13369 -6.033798 -14.220406 -11.964241l0 0c-5.4373093 0.6983185 -10.694437 -2.3934708 -13.162287 -7.7409363c-2.4678516 -5.3474655 -1.6210804 -11.812256 2.1200638 -16.185913l0 0c-4.8502197 -3.1330872 -7.325094 -9.350166 -6.134075 -15.409271c1.191021 -6.0591125 5.7780476 -10.5872345 11.369127 -11.223137z" fill-rule="nonzero"></path><path fill="#000000" fill-opacity="0.0" d="m28.699018 92.91208l0 0c2.2888336 1.4785156 4.932974 2.1492004 7.5773983 1.9220123m3.4636307 22.005371c1.1372032 -0.1460495 2.251873 -0.45533752 3.3152733 -0.9198761m28.617264 10.06929c-0.7998276 -1.3164139 -1.46949 -2.723114 -1.9975739 -4.1961365m38.12098 -1.7145691l0 0c0.4126587 -1.4995346 0.6800232 -3.0428772 0.79763794 -4.604286m25.669724 -11.336044c0.053497314 -7.3114777 -3.7302704 -14.005943 -9.7260895 -17.207924m22.929855 -18.345535c-0.97099304 2.4896927 -2.4533386 4.698265 -4.3307953 6.452553m-6.1388855 -30.288303l0 0c0.16545105 1.0053978 0.24201965 2.0259018 0.22865295 3.0473747m-25.61016 -10.511116l0 0c-0.9070511 1.171402 -1.6543427 2.4804306 -2.218605 3.8863258m-19.848495 -1.5929413l0 0c-0.48338318 1.0639763 -0.84433746 2.189846 -1.0745621 3.3516731m-24.205238 0.9167671l0 0c1.4113312 0.9071846 2.7170105 1.9990768 3.8883438 3.2516937m-34.11582 18.85738l0 0c0.14360428 1.1582336 0.37050247 2.3021927 0.6785774 3.4211578" fill-rule="nonzero"></path><path stroke="#000000" stroke-width="2.0" stroke-linejoin="round" stroke-linecap="butt" d="m34.04155 65.95579l0 0c-1.0419197 -8.403591 2.37891 -16.722637 8.810902 -21.427063c6.4319954 -4.704422 14.74712 -4.969166 21.416965 -0.6818924l0 0c2.3626633 -4.8862 6.6870193 -8.259781 11.665047 -9.100304c4.9780273 -0.8405266 10.025024 0.9507332 13.61438 4.831951l0 0c2.0126877 -4.4301414 5.96463 -7.4066315 10.453476 -7.873255c4.488838 -0.4666233 8.879303 1.6426563 11.613426 5.579359l0 0c3.6362076 -4.695938 9.421509 -6.6731224 14.852562 -5.0760155c5.431061 1.5971069 9.53241 6.4816513 10.529373 12.540062l0 0c4.4549713 1.3336678 8.165878 4.724022 10.17392 9.295109c2.0080414 4.5710907 2.1162567 9.874493 0.29667664 14.539986l0 0c4.386841 6.266266 5.41304 14.61599 2.6956177 21.933197c-2.7174072 7.317215 -8.770172 12.502586 -15.899506 13.621033c-0.05026245 6.867462 -3.4819489 13.168968 -8.972351 16.475632c-5.490402 3.3066711 -12.182175 3.10215 -17.496017 -0.5347214c-2.26342 8.224983 -8.634171 14.276848 -16.35987 15.540962c-7.7257004 1.2641144 -15.421349 -2.4861298 -19.762154 -9.630501c-5.320915 3.5214767 -11.705574 4.5359116 -17.713722 2.8144455c-6.008148 -1.7214584 -11.13369 -6.033798 -14.220406 -11.964241l0 0c-5.4373093 0.6983185 -10.694437 -2.3934708 -13.162287 -7.7409363c-2.4678516 -5.3474655 -1.6210804 -11.812256 2.1200638 -16.185913l0 0c-4.8502197 -3.1330872 -7.325094 -9.350166 -6.134075 -15.409271c1.191021 -6.0591125 5.7780476 -10.5872345 11.369127 -11.223137z" fill-rule="nonzero"></path><path stroke="#000000" stroke-width="2.0" stroke-linejoin="round" stroke-linecap="butt" d="m28.699018 92.91208l0 0c2.2888336 1.4785156 4.932974 2.1492004 7.5773983 1.9220123m3.4636307 22.005371c1.1372032 -0.1460495 2.251873 -0.45533752 3.3152733 -0.9198761m28.617264 10.06929c-0.7998276 -1.3164139 -1.46949 -2.723114 -1.9975739 -4.1961365m38.12098 -1.7145691l0 0c0.4126587 -1.4995346 0.6800232 -3.0428772 0.79763794 -4.604286m25.669724 -11.336044c0.053497314 -7.3114777 -3.7302704 -14.005943 -9.7260895 -17.207924m22.929855 -18.345535c-0.97099304 2.4896927 -2.4533386 4.698265 -4.3307953 6.452553m-6.1388855 -30.288303l0 0c0.16545105 1.0053978 0.24201965 2.0259018 0.22865295 3.0473747m-25.61016 -10.511116l0 0c-0.9070511 1.171402 -1.6543427 2.4804306 -2.218605 3.8863258m-19.848495 -1.5929413l0 0c-0.48338318 1.0639763 -0.84433746 2.189846 -1.0745621 3.3516731m-24.205238 0.9167671l0 0c1.4113312 0.9071846 2.7170105 1.9990768 3.8883438 3.2516937m-34.11582 18.85738l0 0c0.14360428 1.1582336 0.37050247 2.3021927 0.6785774 3.4211578" fill-rule="nonzero"></path><path fill="#ffffff" d="m113.45666 109.07621l66.64567 11.307083l9.746475 -57.436043l-22.89325 -32.249687l-39.073692 -6.6292324z" fill-rule="nonzero"></path><path fill="#cbcbcb" d="m166.95555 30.697565l1.7714081 22.993036l21.121841 9.256649z" fill-rule="nonzero"></path><path fill="#000000" fill-opacity="0.0" d="m166.95555 30.697565l1.7714081 22.993036l21.121841 9.256649l-22.89325 -32.249687l-39.073692 -6.6292324l-14.425201 85.00787l66.64567 11.307083l9.746475 -57.436043" fill-rule="nonzero"></path><path stroke="#000000" stroke-width="2.0" stroke-linejoin="round" stroke-linecap="butt" d="m166.95555 30.697565l1.7714081 22.993036l21.121841 9.256649l-22.89325 -32.249687l-39.073692 -6.6292324l-14.425201 85.00787l66.64567 11.307083l9.746475 -57.436043" fill-rule="nonzero"></path><path fill="#000000" fill-opacity="0.0" d="m292.5223 54.429134l0 0c0 -12.385094 10.0401 -22.425198 22.425201 -22.425198l0 0c5.9475403 0 11.651459 2.362648 15.856995 6.5681877c4.205536 4.2055397 6.568207 9.909477 6.568207 15.85701l0 0c0 12.3850975 -10.0401 22.425198 -22.425201 22.425198l0 0c-12.385101 0 -22.425201 -10.0401 -22.425201 -22.425198z" fill-rule="nonzero"></path><path stroke="#000000" stroke-width="2.0" stroke-linejoin="round" stroke-linecap="butt" d="m292.5223 54.429134l0 0c0 -12.385094 10.0401 -22.425198 22.425201 -22.425198l0 0c5.9475403 0 11.651459 2.362648 15.856995 6.5681877c4.205536 4.2055397 6.568207 9.909477 6.568207 15.85701l0 0c0 12.3850975 -10.0401 22.425198 -22.425201 22.425198l0 0c-12.385101 0 -22.425201 -10.0401 -22.425201 -22.425198z" fill-rule="nonzero"></path><path fill="#000000" fill-opacity="0.0" d="m314.9475 76.85433l0 29.007874" fill-rule="nonzero"></path><path stroke="#000000" stroke-width="2.0" stroke-linejoin="round" stroke-linecap="butt" d="m314.9475 76.85433l0 29.007874" fill-rule="nonzero"></path><path fill="#000000" fill-opacity="0.0" d="m313.62204 105.84908l-10.551178 27.685036" fill-rule="nonzero"></path><path stroke="#000000" stroke-width="2.0" stroke-linejoin="round" stroke-linecap="butt" d="m313.62204 105.84908l-10.551178 27.685036" fill-rule="nonzero"></path><path fill="#000000" fill-opacity="0.0" d="m314.9475 105.2664l15.653534 28.850388" fill-rule="nonzero"></path><path stroke="#000000" stroke-width="2.0" stroke-linejoin="round" stroke-linecap="butt" d="m314.9475 105.2664l15.653534 28.850388" fill-rule="nonzero"></path><path fill="#000000" fill-opacity="0.0" d="m297.78217 93.98819l17.165344 -17.133858" fill-rule="nonzero"></path><path stroke="#000000" stroke-width="2.0" stroke-linejoin="round" stroke-linecap="butt" d="m297.78217 93.98819l17.165344 -17.133858" fill-rule="nonzero"></path><path fill="#000000" fill-opacity="0.0" d="m314.9475 76.85433l17.13385 19.779526" fill-rule="nonzero"></path><path stroke="#000000" stroke-width="2.0" stroke-linejoin="round" stroke-linecap="butt" d="m314.9475 76.85433l17.13385 19.779526" fill-rule="nonzero"></path><path fill="#000000" fill-opacity="0.0" d="m202.66408 83.72199l81.85826 -0.6614227" fill-rule="nonzero"></path><path stroke="#000000" stroke-width="3.0" stroke-linejoin="round" stroke-linecap="butt" d="m202.66408 83.72199l71.57735 -0.57834625" fill-rule="evenodd"></path><path fill="#000000" stroke="#000000" stroke-width="3.0" stroke-linecap="butt" d="m274.24142 83.14365l-3.3463745 3.4008942l9.24173 -3.448532l-9.296265 -3.2987442z" fill-rule="evenodd"></path></g></svg>

