<?xml version="1.0" standalone="yes"?>

<svg version="1.1" viewBox="0.0 0.0 488.7769028871391 154.46456692913387" fill="none" stroke="none" stroke-linecap="square" stroke-miterlimit="10" xmlns="http://www.w3.org/2000/svg" xmlns:xlink="http://www.w3.org/1999/xlink"><clipPath id="p.0"><path d="m0 0l488.77692 0l0 154.46457l-488.77692 0l0 -154.46457z" clip-rule="nonzero"></path></clipPath><g clip-path="url(#p.0)"><path fill="#000000" fill-opacity="0.0" d="m0 0l488.77692 0l0 154.46457l-488.77692 0z" fill-rule="nonzero"></path><path fill="#000000" fill-opacity="0.0" d="m27.66622 57.95579l0 0c-1.0419197 -8.403595 2.37891 -16.722641 8.810904 -21.427067c6.4319954 -4.704422 14.74712 -4.9691677 21.416965 -0.6818924l0 0c2.3626595 -4.886198 6.6870193 -8.259781 11.665047 -9.100306c4.9780273 -0.84052277 10.025024 0.9507332 13.61438 4.831951l0 0c2.0126877 -4.4301395 5.96463 -7.4066296 10.453476 -7.873253c4.488838 -0.4666233 8.879303 1.6426582 11.613426 5.579359l0 0c3.6362076 -4.695938 9.421509 -6.6731224 14.852562 -5.0760155c5.431061 1.5971069 9.532417 6.4816513 10.529381 12.540062l0 0c4.4549713 1.3336678 8.165863 4.724022 10.17392 9.295109c2.0080414 4.5710907 2.1162567 9.874493 0.29667664 14.539986l0 0c4.386841 6.266266 5.41304 14.61599 2.6956177 21.933197c-2.7174225 7.317215 -8.770187 12.502586 -15.899521 13.621033c-0.050247192 6.867462 -3.4819336 13.168968 -8.972343 16.475632c-5.490402 3.3066711 -12.182175 3.10215 -17.496017 -0.5347214c-2.26342 8.224983 -8.634171 14.27684 -16.35987 15.540955c-7.7257004 1.264122 -15.421349 -2.4861298 -19.762154 -9.630493c-5.320915 3.5214767 -11.705574 4.535904 -17.713722 2.8144455c-6.008148 -1.7214584 -11.13369 -6.033798 -14.220406 -11.964241l0 0c-5.437311 0.6983185 -10.694437 -2.3934708 -13.162287 -7.7409363c-2.4678516 -5.3474655 -1.6210804 -11.812256 2.1200638 -16.185913l0 0c-4.8502197 -3.1330872 -7.325095 -9.350166 -6.134075 -15.409271c1.191021 -6.0591087 5.7780476 -10.5872345 11.369125 -11.223137z" fill-rule="nonzero"></path><path fill="#000000" fill-opacity="0.0" d="m22.32369 84.91208l0 0c2.2888336 1.4785156 4.932972 2.1492004 7.5773983 1.9220123m3.4636307 22.005371c1.1372032 -0.1460495 2.251873 -0.45533752 3.3152733 -0.9198761m28.617264 10.06929c-0.7998276 -1.3164139 -1.46949 -2.723114 -1.99757 -4.1961365m38.120975 -1.7145691l0 0c0.4126587 -1.4995346 0.6800232 -3.0428772 0.79763794 -4.604286m25.669731 -11.336044c0.053497314 -7.3114777 -3.7302856 -14.005943 -9.726097 -17.207924m22.929863 -18.34554c-0.9710083 2.4896965 -2.453354 4.698269 -4.3308105 6.4525566m-6.1388702 -30.288303l0 0c0.16543579 1.0053978 0.2420044 2.0259018 0.2286377 3.0473747m-25.610153 -10.511116l0 0c-0.9070511 1.1714039 -1.6543427 2.4804306 -2.218605 3.8863258m-19.848495 -1.5929432l0 0c-0.48338318 1.0639782 -0.84433746 2.189848 -1.0745621 3.351675m-24.205242 0.9167671l0 0c1.411335 0.9071846 2.7170105 1.9990768 3.8883476 3.2516937m-34.11582 18.857384l0 0c0.14360428 1.1582336 0.37050438 2.302185 0.67857933 3.421154" fill-rule="nonzero"></path><path stroke="#000000" stroke-width="2.0" stroke-linejoin="round" stroke-linecap="butt" d="m27.66622 57.95579l0 0c-1.0419197 -8.403595 2.37891 -16.722641 8.810904 -21.427067c6.4319954 -4.704422 14.74712 -4.9691677 21.416965 -0.6818924l0 0c2.3626595 -4.886198 6.6870193 -8.259781 11.665047 -9.100306c4.9780273 -0.84052277 10.025024 0.9507332 13.61438 4.831951l0 0c2.0126877 -4.4301395 5.96463 -7.4066296 10.453476 -7.873253c4.488838 -0.4666233 8.879303 1.6426582 11.613426 5.579359l0 0c3.6362076 -4.695938 9.421509 -6.6731224 14.852562 -5.0760155c5.431061 1.5971069 9.532417 6.4816513 10.529381 12.540062l0 0c4.4549713 1.3336678 8.165863 4.724022 10.17392 9.295109c2.0080414 4.5710907 2.1162567 9.874493 0.29667664 14.539986l0 0c4.386841 6.266266 5.41304 14.61599 2.6956177 21.933197c-2.7174225 7.317215 -8.770187 12.502586 -15.899521 13.621033c-0.050247192 6.867462 -3.4819336 13.168968 -8.972343 16.475632c-5.490402 3.3066711 -12.182175 3.10215 -17.496017 -0.5347214c-2.26342 8.224983 -8.634171 14.27684 -16.35987 15.540955c-7.7257004 1.264122 -15.421349 -2.4861298 -19.762154 -9.630493c-5.320915 3.5214767 -11.705574 4.535904 -17.713722 2.8144455c-6.008148 -1.7214584 -11.13369 -6.033798 -14.220406 -11.964241l0 0c-5.437311 0.6983185 -10.694437 -2.3934708 -13.162287 -7.7409363c-2.4678516 -5.3474655 -1.6210804 -11.812256 2.1200638 -16.185913l0 0c-4.8502197 -3.1330872 -7.325095 -9.350166 -6.134075 -15.409271c1.191021 -6.0591087 5.7780476 -10.5872345 11.369125 -11.223137z" fill-rule="nonzero"></path><path stroke="#000000" stroke-width="2.0" stroke-linejoin="round" stroke-linecap="butt" d="m22.32369 84.91208l0 0c2.2888336 1.4785156 4.932972 2.1492004 7.5773983 1.9220123m3.4636307 22.005371c1.1372032 -0.1460495 2.251873 -0.45533752 3.3152733 -0.9198761m28.617264 10.06929c-0.7998276 -1.3164139 -1.46949 -2.723114 -1.99757 -4.1961365m38.120975 -1.7145691l0 0c0.4126587 -1.4995346 0.6800232 -3.0428772 0.79763794 -4.604286m25.669731 -11.336044c0.053497314 -7.3114777 -3.7302856 -14.005943 -9.726097 -17.207924m22.929863 -18.34554c-0.9710083 2.4896965 -2.453354 4.698269 -4.3308105 6.4525566m-6.1388702 -30.288303l0 0c0.16543579 1.0053978 0.2420044 2.0259018 0.2286377 3.0473747m-25.610153 -10.511116l0 0c-0.9070511 1.1714039 -1.6543427 2.4804306 -2.218605 3.8863258m-19.848495 -1.5929432l0 0c-0.48338318 1.0639782 -0.84433746 2.189848 -1.0745621 3.351675m-24.205242 0.9167671l0 0c1.411335 0.9071846 2.7170105 1.9990768 3.8883476 3.2516937m-34.11582 18.857384l0 0c0.14360428 1.1582336 0.37050438 2.302185 0.67857933 3.421154" fill-rule="nonzero"></path><path fill="#ffffff" d="m110.62985 105.46724l66.456696 9.133858l8.603836 -62.67879l-23.71968 -31.273205l-38.9629 -5.355089z" fill-rule="nonzero"></path><path fill="#cbcbcb" d="m161.9707 20.649101l2.4794617 22.751305l21.24022 8.5219z" fill-rule="nonzero"></path><path fill="#000000" fill-opacity="0.0" d="m161.9707 20.649101l2.4794617 22.751305l21.24022 8.5219l-23.71968 -31.273205l-38.9629 -5.355089l-12.377953 90.173225l66.456696 9.133858l8.603836 -62.67879" fill-rule="nonzero"></path><path stroke="#000000" stroke-width="2.0" stroke-linejoin="round" stroke-linecap="butt" d="m161.9707 20.649101l2.4794617 22.751305l21.24022 8.5219l-23.71968 -31.273205l-38.9629 -5.355089l-12.377953 90.173225l66.456696 9.133858l8.603836 -62.67879" fill-rule="nonzero"></path><path fill="#000000" fill-opacity="0.0" d="m280.9344 58.61155l0 0c0 -7.4014854 6.162262 -13.401577 13.763763 -13.401577l0 0c3.6503906 0 7.1512756 1.4119492 9.732483 3.925232c2.5812073 2.5132828 4.031311 5.922024 4.031311 9.476345l0 0c0 7.4014816 -6.162262 13.401573 -13.763794 13.401573l0 0c-7.6015015 0 -13.763763 -6.0000916 -13.763763 -13.401573z" fill-rule="nonzero"></path><path stroke="#000000" stroke-width="1.0" stroke-linejoin="round" stroke-linecap="butt" d="m280.9344 58.61155l0 0c0 -7.4014854 6.162262 -13.401577 13.763763 -13.401577l0 0c3.6503906 0 7.1512756 1.4119492 9.732483 3.925232c2.5812073 2.5132828 4.031311 5.922024 4.031311 9.476345l0 0c0 7.4014816 -6.162262 13.401573 -13.763794 13.401573l0 0c-7.6015015 0 -13.763763 -6.0000916 -13.763763 -13.401573z" fill-rule="nonzero"></path><path fill="#000000" fill-opacity="0.0" d="m300.97113 98.46457l0 0c0 -7.4014893 6.162262 -13.401573 13.763763 -13.401573l0 0c3.6503906 0 7.1512756 1.4119415 9.732483 3.9252243c2.5812073 2.5132828 4.031311 5.9220276 4.031311 9.476349l0 0c0 7.4014816 -6.162262 13.401573 -13.763794 13.401573l0 0c-7.6015015 0 -13.763763 -6.0000916 -13.763763 -13.401573z" fill-rule="nonzero"></path><path stroke="#000000" stroke-width="1.0" stroke-linejoin="round" stroke-linecap="butt" d="m300.97113 98.46457l0 0c0 -7.4014893 6.162262 -13.401573 13.763763 -13.401573l0 0c3.6503906 0 7.1512756 1.4119415 9.732483 3.9252243c2.5812073 2.5132828 4.031311 5.9220276 4.031311 9.476349l0 0c0 7.4014816 -6.162262 13.401573 -13.763794 13.401573l0 0c-7.6015015 0 -13.763763 -6.0000916 -13.763763 -13.401573z" fill-rule="nonzero"></path><path fill="#000000" fill-opacity="0.0" d="m336.7848 73.09449l0 0c0 -7.4014893 6.1622314 -13.401577 13.763763 -13.401577l0 0c3.6503906 0 7.151245 1.4119492 9.732452 3.925232c2.5812073 2.513279 4.0313416 5.922024 4.0313416 9.476345l0 0c0 7.4014816 -6.162262 13.401573 -13.763794 13.401573l0 0c-7.601532 0 -13.763763 -6.0000916 -13.763763 -13.401573z" fill-rule="nonzero"></path><path stroke="#000000" stroke-width="1.0" stroke-linejoin="round" stroke-linecap="butt" d="m336.7848 73.09449l0 0c0 -7.4014893 6.1622314 -13.401577 13.763763 -13.401577l0 0c3.6503906 0 7.151245 1.4119492 9.732452 3.925232c2.5812073 2.513279 4.0313416 5.922024 4.0313416 9.476345l0 0c0 7.4014816 -6.162262 13.401573 -13.763794 13.401573l0 0c-7.601532 0 -13.763763 -6.0000916 -13.763763 -13.401573z" fill-rule="nonzero"></path><path fill="#000000" fill-opacity="0.0" d="m308.46194 58.61155l28.314972 14.48819" fill-rule="nonzero"></path><path stroke="#000000" stroke-width="2.0" stroke-linejoin="round" stroke-linecap="butt" d="m308.46194 58.61155l28.314972 14.48819" fill-rule="nonzero"></path><path fill="#000000" fill-opacity="0.0" d="m328.4987 98.46457l22.047241 -11.968506" fill-rule="nonzero"></path><path stroke="#000000" stroke-width="2.0" stroke-linejoin="round" stroke-linecap="butt" d="m328.4987 98.46457l22.047241 -11.968506" fill-rule="nonzero"></path><path fill="#000000" fill-opacity="0.0" d="m321.57217 45.06838l0 0c0 -5.9316254 4.9354553 -10.740158 11.023621 -10.740158l0 0c2.923645 0 5.727539 1.1315498 7.7948914 3.1457214c2.0673218 2.0141716 3.2287292 4.7459717 3.2287292 7.5944366l0 0c0 5.9316254 -4.935425 10.740158 -11.023621 10.740158l0 0c-6.0881653 0 -11.023621 -4.8085327 -11.023621 -10.740158z" fill-rule="nonzero"></path><path stroke="#000000" stroke-width="1.0" stroke-linejoin="round" stroke-linecap="butt" d="m321.57217 45.06838l0 0c0 -5.9316254 4.9354553 -10.740158 11.023621 -10.740158l0 0c2.923645 0 5.727539 1.1315498 7.7948914 3.1457214c2.0673218 2.0141716 3.2287292 4.7459717 3.2287292 7.5944366l0 0c0 5.9316254 -4.935425 10.740158 -11.023621 10.740158l0 0c-6.0881653 0 -11.023621 -4.8085327 -11.023621 -10.740158z" fill-rule="nonzero"></path><path fill="#000000" fill-opacity="0.0" d="m304.43063 49.135204l17.13385 -4.062992" fill-rule="nonzero"></path><path stroke="#000000" stroke-width="1.0" stroke-linejoin="round" stroke-linecap="butt" d="m304.43063 49.135204l17.13385 -4.062992" fill-rule="nonzero"></path><path fill="#000000" fill-opacity="0.0" d="m340.3907 52.66282l10.173218 7.0236206" fill-rule="nonzero"></path><path stroke="#000000" stroke-width="1.0" stroke-linejoin="round" stroke-linecap="butt" d="m340.3907 52.66282l10.173218 7.0236206" fill-rule="nonzero"></path><path fill="#000000" fill-opacity="0.0" d="m191.55383 75.72199l81.858246 -0.6614227" fill-rule="nonzero"></path><path stroke="#000000" stroke-width="3.0" stroke-linejoin="round" stroke-linecap="butt" d="m191.55383 75.72199l71.57733 -0.57834625" fill-rule="evenodd"></path><path fill="#000000" stroke="#000000" stroke-width="3.0" stroke-linecap="butt" d="m263.13116 75.14365l-3.3463745 3.4008942l9.24173 -3.448532l-9.296265 -3.2987442z" fill-rule="evenodd"></path><path fill="#000000" fill-opacity="0.0" d="m416.85565 22.287073l31.27472 0l0 27.300722c-15.636505 0 -15.636505 10.503937 -31.27472 5.2519684zm2.5766602 0l0 -3.5393696l31.061127 0l0 27.471981c-1.1806946 0 -2.3630676 0.19028854 -2.3630676 0.19028854l0 -24.1229zm2.4219055 -3.5393696l0 -3.4537401l31.33023 0l0 27.386349c-1.3454895 0 -2.6910095 0.14271927 -2.6910095 0.14271927l0 -24.075329z" fill-rule="nonzero"></path><path fill="#000000" fill-opacity="0.0" d="m416.85565 22.287073l31.27472 0l0 27.300722c-15.636505 0 -15.636505 10.503937 -31.27472 5.2519684zm2.5766602 0l0 -3.5393696l31.061127 0l0 27.471981c-1.1806946 0 -2.3630676 0.19028854 -2.3630676 0.19028854m-26.276154 -27.66227l0 -3.4537401l31.33023 0l0 27.386349c-1.3454895 0 -2.6910095 0.14271927 -2.6910095 0.14271927" fill-rule="nonzero"></path><path fill="#000000" fill-opacity="0.0" d="m416.85565 54.839764c15.638214 5.2519684 15.638214 -5.2519684 31.27472 -5.2519684l0 -3.177822c0 0 1.182373 -0.19028854 2.3630676 -0.19028854l0 -3.3966522c0 0 1.34552 -0.14271927 2.6910095 -0.14271927l0 -27.386349l-31.33023 0l0 3.4537401l-2.4219055 0l0 3.5393696l-2.5766602 0z" fill-rule="nonzero"></path><path stroke="#000000" stroke-width="1.0" stroke-linejoin="round" stroke-linecap="butt" d="m416.85565 22.287073l31.27472 0l0 27.300722c-15.636505 0 -15.636505 10.503937 -31.27472 5.2519684zm2.5766602 0l0 -3.5393696l31.061127 0l0 27.471981c-1.1806946 0 -2.3630676 0.19028854 -2.3630676 0.19028854m-26.276154 -27.66227l0 -3.4537401l31.33023 0l0 27.386349c-1.3454895 0 -2.6910095 0.14271927 -2.6910095 0.14271927" fill-rule="nonzero"></path><path fill="#000000" fill-opacity="0.0" d="m415.021 105.32284l0 0c0 -9.732391 8.129395 -17.622047 18.15747 -17.622047l0 0c4.815674 0 9.434113 1.8565979 12.839294 5.161377c3.405182 3.3047714 5.318207 7.78701 5.318207 12.46067l0 0c0 9.732384 -8.129395 17.622047 -18.157501 17.622047l0 0c-10.028076 0 -18.15747 -7.8896637 -18.15747 -17.622047z" fill-rule="nonzero"></path><path fill="#000000" fill-opacity="0.0" d="m420.3392 92.86217l25.678558 24.921333m0 -24.921333l-25.678558 24.921333" fill-rule="nonzero"></path><path fill="#000000" fill-opacity="0.0" d="m415.021 105.32284l0 0c0 -9.732391 8.129395 -17.622047 18.15747 -17.622047l0 0c4.815674 0 9.434113 1.8565979 12.839294 5.161377c3.405182 3.3047714 5.318207 7.78701 5.318207 12.46067l0 0c0 9.732384 -8.129395 17.622047 -18.157501 17.622047l0 0c-10.028076 0 -18.15747 -7.8896637 -18.15747 -17.622047z" fill-rule="nonzero"></path><path stroke="#000000" stroke-width="1.0" stroke-linejoin="round" stroke-linecap="butt" d="m420.3392 92.86217l25.678558 24.921333m0 -24.921333l-25.678558 24.921333" fill-rule="nonzero"></path><path stroke="#000000" stroke-width="1.0" stroke-linejoin="round" stroke-linecap="butt" d="m415.021 105.32284l0 0c0 -9.732391 8.129395 -17.622047 18.15747 -17.622047l0 0c4.815674 0 9.434113 1.8565979 12.839294 5.161377c3.405182 3.3047714 5.318207 7.78701 5.318207 12.46067l0 0c0 9.732384 -8.129395 17.622047 -18.157501 17.622047l0 0c-10.028076 0 -18.15747 -7.8896637 -18.15747 -17.622047z" fill-rule="nonzero"></path><path fill="#000000" fill-opacity="0.0" d="m367.3176 52.839893l41.35431 -12.409447" fill-rule="nonzero"></path><path stroke="#000000" stroke-width="2.0" stroke-linejoin="round" stroke-linecap="butt" d="m367.3176 52.839893l34.789368 -10.439457" fill-rule="evenodd"></path><path fill="#000000" stroke="#000000" stroke-width="2.0" stroke-linecap="butt" d="m402.10693 42.400436l-1.5078125 2.8007126l5.2723694 -3.930359l-6.5652466 -0.37817383z" fill-rule="evenodd"></path><path fill="#000000" fill-opacity="0.0" d="m367.3176 89.8294l38.519684 11.149605" fill-rule="nonzero"></path><path stroke="#000000" stroke-width="2.0" stroke-linejoin="round" stroke-linecap="butt" d="m367.3176 89.8294l31.93576 9.243874" fill-rule="evenodd"></path><path fill="#000000" stroke="#000000" stroke-width="2.0" stroke-linecap="butt" d="m399.25336 99.07327l-2.7858276 1.5351257l6.5612183 -0.4423294l-5.3105164 -3.8786316z" fill-rule="evenodd"></path></g></svg>

