<?xml version="1.0" standalone="yes"?>

<svg version="1.1" viewBox="0.0 0.0 392.84251968503935 216.0" fill="none" stroke="none" stroke-linecap="square" stroke-miterlimit="10" xmlns="http://www.w3.org/2000/svg" xmlns:xlink="http://www.w3.org/1999/xlink"><clipPath id="p.0"><path d="m0 0l392.84253 0l0 216.0l-392.84253 0l0 -216.0z" clip-rule="nonzero"></path></clipPath><g clip-path="url(#p.0)"><path fill="#000000" fill-opacity="0.0" d="m0 0l392.84253 0l0 216.0l-392.84253 0z" fill-rule="nonzero"></path><path fill="#000000" fill-opacity="0.0" d="m35.66622 57.95579l0 0c-1.0419197 -8.403595 2.37891 -16.722641 8.810902 -21.427067c6.4319954 -4.704422 14.74712 -4.9691677 21.416965 -0.6818924l0 0c2.3626633 -4.886198 6.6870193 -8.259781 11.665047 -9.100306c4.9780273 -0.84052277 10.025024 0.9507332 13.61438 4.831951l0 0c2.0126877 -4.4301395 5.96463 -7.4066296 10.453476 -7.873253c4.488838 -0.4666233 8.879303 1.6426582 11.613426 5.579359l0 0c3.6362076 -4.695938 9.421509 -6.6731224 14.85257 -5.0760155c5.4310455 1.5971069 9.53241 6.4816513 10.529373 12.540062l0 0c4.4549713 1.3336678 8.165863 4.724022 10.17392 9.295109c2.0080414 4.5710907 2.1162567 9.874493 0.29667664 14.539986l0 0c4.386841 6.266266 5.41304 14.61599 2.6956177 21.933197c-2.7174225 7.317215 -8.770187 12.502586 -15.899521 13.621033c-0.050247192 6.867462 -3.4819336 13.168968 -8.972343 16.475632c-5.490402 3.3066711 -12.182175 3.10215 -17.496017 -0.5347214c-2.26342 8.224983 -8.634171 14.27684 -16.35987 15.540955c-7.7257004 1.264122 -15.421349 -2.4861298 -19.762154 -9.630493c-5.320915 3.5214767 -11.705574 4.535904 -17.713722 2.8144455c-6.008148 -1.7214584 -11.13369 -6.033798 -14.220406 -11.964241l0 0c-5.4373093 0.6983185 -10.694437 -2.3934708 -13.162287 -7.7409363c-2.4678516 -5.3474655 -1.6210804 -11.812256 2.1200638 -16.185913l0 0c-4.8502197 -3.1330872 -7.325094 -9.350166 -6.134075 -15.409271c1.191021 -6.0591087 5.7780476 -10.5872345 11.369127 -11.223137z" fill-rule="nonzero"></path><path fill="#000000" fill-opacity="0.0" d="m30.32369 84.91208l0 0c2.2888317 1.4785156 4.932974 2.1492004 7.5773983 1.9220123m3.4636307 22.005371c1.1372032 -0.1460495 2.251873 -0.45533752 3.3152733 -0.9198761m28.617264 10.06929c-0.7998276 -1.3164139 -1.46949 -2.723114 -1.9975739 -4.1961365m38.12098 -1.7145691l0 0c0.4126587 -1.4995346 0.6800232 -3.0428772 0.79763794 -4.604286m25.669731 -11.336044c0.053497314 -7.3114777 -3.7302856 -14.005943 -9.726097 -17.207924m22.929863 -18.34554c-0.9710083 2.4896965 -2.453354 4.698269 -4.3308105 6.4525566m-6.1388702 -30.288303l0 0c0.16543579 1.0053978 0.2420044 2.0259018 0.2286377 3.0473747m-25.610153 -10.511116l0 0c-0.9070511 1.1714039 -1.6543427 2.4804306 -2.218605 3.8863258m-19.848495 -1.5929432l0 0c-0.48338318 1.0639782 -0.84433746 2.189848 -1.0745621 3.351675m-24.205238 0.9167671l0 0c1.4113312 0.9071846 2.7170105 1.9990768 3.8883438 3.2516937m-34.11582 18.857384l0 0c0.14360428 1.1582336 0.37050247 2.302185 0.6785774 3.421154" fill-rule="nonzero"></path><path stroke="#000000" stroke-width="2.0" stroke-linejoin="round" stroke-linecap="butt" d="m35.66622 57.95579l0 0c-1.0419197 -8.403595 2.37891 -16.722641 8.810902 -21.427067c6.4319954 -4.704422 14.74712 -4.9691677 21.416965 -0.6818924l0 0c2.3626633 -4.886198 6.6870193 -8.259781 11.665047 -9.100306c4.9780273 -0.84052277 10.025024 0.9507332 13.61438 4.831951l0 0c2.0126877 -4.4301395 5.96463 -7.4066296 10.453476 -7.873253c4.488838 -0.4666233 8.879303 1.6426582 11.613426 5.579359l0 0c3.6362076 -4.695938 9.421509 -6.6731224 14.85257 -5.0760155c5.4310455 1.5971069 9.53241 6.4816513 10.529373 12.540062l0 0c4.4549713 1.3336678 8.165863 4.724022 10.17392 9.295109c2.0080414 4.5710907 2.1162567 9.874493 0.29667664 14.539986l0 0c4.386841 6.266266 5.41304 14.61599 2.6956177 21.933197c-2.7174225 7.317215 -8.770187 12.502586 -15.899521 13.621033c-0.050247192 6.867462 -3.4819336 13.168968 -8.972343 16.475632c-5.490402 3.3066711 -12.182175 3.10215 -17.496017 -0.5347214c-2.26342 8.224983 -8.634171 14.27684 -16.35987 15.540955c-7.7257004 1.264122 -15.421349 -2.4861298 -19.762154 -9.630493c-5.320915 3.5214767 -11.705574 4.535904 -17.713722 2.8144455c-6.008148 -1.7214584 -11.13369 -6.033798 -14.220406 -11.964241l0 0c-5.4373093 0.6983185 -10.694437 -2.3934708 -13.162287 -7.7409363c-2.4678516 -5.3474655 -1.6210804 -11.812256 2.1200638 -16.185913l0 0c-4.8502197 -3.1330872 -7.325094 -9.350166 -6.134075 -15.409271c1.191021 -6.0591087 5.7780476 -10.5872345 11.369127 -11.223137z" fill-rule="nonzero"></path><path stroke="#000000" stroke-width="2.0" stroke-linejoin="round" stroke-linecap="butt" d="m30.32369 84.91208l0 0c2.2888317 1.4785156 4.932974 2.1492004 7.5773983 1.9220123m3.4636307 22.005371c1.1372032 -0.1460495 2.251873 -0.45533752 3.3152733 -0.9198761m28.617264 10.06929c-0.7998276 -1.3164139 -1.46949 -2.723114 -1.9975739 -4.1961365m38.12098 -1.7145691l0 0c0.4126587 -1.4995346 0.6800232 -3.0428772 0.79763794 -4.604286m25.669731 -11.336044c0.053497314 -7.3114777 -3.7302856 -14.005943 -9.726097 -17.207924m22.929863 -18.34554c-0.9710083 2.4896965 -2.453354 4.698269 -4.3308105 6.4525566m-6.1388702 -30.288303l0 0c0.16543579 1.0053978 0.2420044 2.0259018 0.2286377 3.0473747m-25.610153 -10.511116l0 0c-0.9070511 1.1714039 -1.6543427 2.4804306 -2.218605 3.8863258m-19.848495 -1.5929432l0 0c-0.48338318 1.0639782 -0.84433746 2.189848 -1.0745621 3.351675m-24.205238 0.9167671l0 0c1.4113312 0.9071846 2.7170105 1.9990768 3.8883438 3.2516937m-34.11582 18.857384l0 0c0.14360428 1.1582336 0.37050247 2.302185 0.6785774 3.421154" fill-rule="nonzero"></path><path fill="#ffffff" d="m118.62985 105.46724l66.456696 9.133858l8.603836 -62.67879l-23.71968 -31.273205l-38.96289 -5.355089z" fill-rule="nonzero"></path><path fill="#cbcbcb" d="m169.9707 20.649101l2.4794617 22.751305l21.24022 8.5219z" fill-rule="nonzero"></path><path fill="#000000" fill-opacity="0.0" d="m169.9707 20.649101l2.4794617 22.751305l21.24022 8.5219l-23.71968 -31.273205l-38.96289 -5.355089l-12.37796 90.173225l66.456696 9.133858l8.603836 -62.67879" fill-rule="nonzero"></path><path stroke="#000000" stroke-width="2.0" stroke-linejoin="round" stroke-linecap="butt" d="m169.9707 20.649101l2.4794617 22.751305l21.24022 8.5219l-23.71968 -31.273205l-38.96289 -5.355089l-12.37796 90.173225l66.456696 9.133858l8.603836 -62.67879" fill-rule="nonzero"></path><path fill="#000000" fill-opacity="0.0" d="m302.14697 46.429134l0 0c0 -12.385094 10.0401 -22.425198 22.425201 -22.425198l0 0c5.9475403 0 11.651459 2.362648 15.857025 6.5681877c4.205536 4.2055397 6.5681763 9.909477 6.5681763 15.85701l0 0c0 12.385094 -10.0401 22.425198 -22.425201 22.425198l0 0c-12.385101 0 -22.425201 -10.040104 -22.425201 -22.425198z" fill-rule="nonzero"></path><path stroke="#000000" stroke-width="2.0" stroke-linejoin="round" stroke-linecap="butt" d="m302.14697 46.429134l0 0c0 -12.385094 10.0401 -22.425198 22.425201 -22.425198l0 0c5.9475403 0 11.651459 2.362648 15.857025 6.5681877c4.205536 4.2055397 6.5681763 9.909477 6.5681763 15.85701l0 0c0 12.385094 -10.0401 22.425198 -22.425201 22.425198l0 0c-12.385101 0 -22.425201 -10.040104 -22.425201 -22.425198z" fill-rule="nonzero"></path><path fill="#000000" fill-opacity="0.0" d="m324.57217 68.85433l0 29.007874" fill-rule="nonzero"></path><path stroke="#000000" stroke-width="2.0" stroke-linejoin="round" stroke-linecap="butt" d="m324.57217 68.85433l0 29.007874" fill-rule="nonzero"></path><path fill="#000000" fill-opacity="0.0" d="m323.2467 97.84908l-10.551178 27.685036" fill-rule="nonzero"></path><path stroke="#000000" stroke-width="2.0" stroke-linejoin="round" stroke-linecap="butt" d="m323.2467 97.84908l-10.551178 27.685036" fill-rule="nonzero"></path><path fill="#000000" fill-opacity="0.0" d="m324.57217 97.2664l15.653534 28.850395" fill-rule="nonzero"></path><path stroke="#000000" stroke-width="2.0" stroke-linejoin="round" stroke-linecap="butt" d="m324.57217 97.2664l15.653534 28.850395" fill-rule="nonzero"></path><path fill="#000000" fill-opacity="0.0" d="m307.40683 85.98819l17.165344 -17.133858" fill-rule="nonzero"></path><path stroke="#000000" stroke-width="2.0" stroke-linejoin="round" stroke-linecap="butt" d="m307.40683 85.98819l17.165344 -17.133858" fill-rule="nonzero"></path><path fill="#000000" fill-opacity="0.0" d="m324.57217 68.85433l17.13385 19.779526" fill-rule="nonzero"></path><path stroke="#000000" stroke-width="2.0" stroke-linejoin="round" stroke-linecap="butt" d="m324.57217 68.85433l17.13385 19.779526" fill-rule="nonzero"></path><path fill="#000000" fill-opacity="0.0" d="m213.40096 55.230057c5.4082794 -2.6745949 19.804993 -16.042698 32.449707 -16.047554c12.644699 -0.004852295 36.182144 13.348686 43.418594 16.018425" fill-rule="nonzero"></path><path stroke="#000000" stroke-width="3.0" stroke-linejoin="round" stroke-linecap="butt" d="m213.40096 55.230053c5.4082794 -2.674591 19.804977 -16.042694 32.449707 -16.04755c6.322357 -0.0024261475 15.367874 3.3347435 23.737381 7.006237c2.0923767 0.9178772 4.142517 1.8566475 6.0972595 2.769352c0.9773865 0.45635605 1.9309082 0.9061928 2.8539734 1.3436432l1.3678894 0.6500282" fill-rule="evenodd"></path><path fill="#000000" stroke="#000000" stroke-width="3.0" stroke-linecap="butt" d="m279.90717 50.95176l-4.4664917 1.6777878l9.834961 0.7588005l-7.0462646 -6.9030647z" fill-rule="evenodd"></path><path fill="#000000" fill-opacity="0.0" d="m290.15417 101.29673c-5.1163025 3.197647 -18.11615 17.927628 -30.697906 19.18586c-12.581772 1.2582321 -37.327225 -9.697037 -44.792664 -11.636444" fill-rule="nonzero"></path><path stroke="#000000" stroke-width="3.0" stroke-linejoin="round" stroke-linecap="butt" d="m290.15417 101.29673c-5.116333 3.1976395 -18.11615 17.927628 -30.697906 19.18586c-6.2908783 0.6291199 -15.622696 -1.7951431 -24.314941 -4.6191025c-2.1730652 -0.70599365 -4.3061676 -1.436966 -6.3417816 -2.151451c-1.0178223 -0.35725403 -2.011261 -0.7103729 -2.9731445 -1.0541992l-1.4256592 -0.51129913" fill-rule="evenodd"></path><path fill="#000000" stroke="#000000" stroke-width="3.0" stroke-linecap="butt" d="m224.40074 112.14654l4.2782135 -2.1121826l-9.861755 0.21965027l7.6957245 6.170738z" fill-rule="evenodd"></path><path fill="#000000" fill-opacity="0.0" d="m312.4216 151.2126c-17.400665 5.1103516 -69.46188 30.50708 -104.40398 30.662125c-34.942093 0.1550293 -87.70716 -24.776596 -105.2486 -29.731903" fill-rule="nonzero"></path><path stroke="#000000" stroke-width="3.0" stroke-linejoin="round" stroke-linecap="butt" d="m312.4216 151.2126c-17.400665 5.1103516 -69.46187 30.507065 -104.40396 30.66211c-17.471054 0.07751465 -39.397842 -6.116638 -59.149567 -12.949554c-9.875839 -3.4164734 -19.207932 -6.9926453 -27.167389 -10.024399c-1.9898682 -0.7579346 -3.8939438 -1.4818573 -5.69928 -2.160736c-0.9026718 -0.33944702 -1.7806549 -0.66763306 -2.6323318 -0.9832001l-0.8615494 -0.3176422" fill-rule="evenodd"></path><path fill="#000000" stroke="#000000" stroke-width="3.0" stroke-linecap="butt" d="m112.50753 155.43916l4.2773285 -2.1139526l-9.861649 0.22373962l7.6982803 6.167557z" fill-rule="evenodd"></path><path fill="#ffffff" d="m199.28006 192.15132l35.40158 5.228348l4.4104004 -29.733337l-12.473709 -16.807648l-20.7556 -3.0653229z" fill-rule="nonzero"></path><path fill="#cbcbcb" d="m226.61833 150.83868l1.1913757 12.1483l11.282333 4.6593475z" fill-rule="nonzero"></path><path fill="#000000" fill-opacity="0.0" d="m226.61833 150.83868l1.1913757 12.1483l11.282333 4.6593475l-12.473709 -16.807648l-20.7556 -3.0653229l-6.582672 44.37796l35.40158 5.228348l4.4104004 -29.733337" fill-rule="nonzero"></path><path stroke="#000000" stroke-width="2.0" stroke-linejoin="round" stroke-linecap="butt" d="m226.61833 150.83868l1.1913757 12.1483l11.282333 4.6593475l-12.473709 -16.807648l-20.7556 -3.0653229l-6.582672 44.37796l35.40158 5.228348l4.4104004 -29.733337" fill-rule="nonzero"></path></g></svg>

